<svg xmlns="http://www.w3.org/2000/svg" xmlns:xlink="http://www.w3.org/1999/xlink" width="765" zoomAndPan="magnify" viewBox="0 0 573.75 385.499984" height="514" preserveAspectRatio="xMidYMid meet" version="1.0"><defs><clipPath id="6b35e62a09"><path d="M 64.210938 142 L 482 142 L 482 351 L 64.210938 351 Z M 64.210938 142 " clip-rule="nonzero"/></clipPath><clipPath id="dc8c7fcdda"><path d="M 240 16.203125 L 410 16.203125 L 410 361 L 240 361 Z M 240 16.203125 " clip-rule="nonzero"/></clipPath><clipPath id="8d1f27a1eb"><path d="M 66 273 L 517.371094 273 L 517.371094 368.996094 L 66 368.996094 Z M 66 273 " clip-rule="nonzero"/></clipPath><clipPath id="d6117a0660"><path d="M 82 250 L 229 250 L 229 368.996094 L 82 368.996094 Z M 82 250 " clip-rule="nonzero"/></clipPath></defs><g clip-path="url(#6b35e62a09)"><path fill="#7a226b" d="M 457.6875 350.0625 L 435.695312 350.0625 L 435.695312 278.734375 L 457.6875 278.734375 Z M 481.441406 278.734375 L 459.453125 278.734375 L 459.453125 350.0625 L 481.441406 350.0625 Z M 118.6875 142.492188 C 105.089844 142.492188 93.257812 150.039062 87.144531 161.167969 L 85.816406 160.753906 C 75.191406 157.433594 64.394531 165.371094 64.394531 176.507812 L 64.394531 239.949219 L 69.410156 239.949219 C 79.707031 239.949219 88.15625 231.800781 88.535156 221.511719 C 88.804688 214.09375 89.074219 206.675781 89.34375 199.253906 C 95.863281 208.433594 106.570312 214.429688 118.6875 214.429688 C 138.554688 214.429688 154.65625 198.328125 154.65625 178.460938 C 154.65625 158.597656 138.554688 142.492188 118.6875 142.492188 Z M 118.6875 142.492188 " fill-opacity="1" fill-rule="nonzero"/></g><g clip-path="url(#dc8c7fcdda)"><path fill="#982a86" d="M 331.515625 348.789062 L 240.464844 348.789062 L 240.464844 360.71875 L 336.148438 360.71875 C 337.421875 360.71875 338.699219 360.71875 339.976562 360.71875 C 349.160156 323.464844 358.347656 286.214844 367.53125 248.960938 C 363.957031 248.960938 360.386719 248.960938 356.816406 248.960938 C 348.382812 282.238281 339.949219 315.511719 331.515625 348.789062 Z M 409.699219 44.804688 C 409.699219 60.597656 396.894531 73.402344 381.101562 73.402344 C 365.304688 73.402344 352.5 60.597656 352.5 44.804688 C 352.5 29.007812 365.304688 16.203125 381.101562 16.203125 C 396.894531 16.203125 409.699219 29.007812 409.699219 44.804688 Z M 409.699219 44.804688 " fill-opacity="1" fill-rule="nonzero"/></g><path fill="#f5f4f5" d="M 324.738281 61.753906 L 324.738281 197.03125 C 324.738281 201.707031 320.945312 205.5 316.269531 205.5 L 180.992188 205.5 C 176.316406 205.5 172.53125 201.707031 172.53125 197.03125 L 172.53125 61.753906 C 172.53125 57.078125 176.316406 53.285156 180.992188 53.285156 L 316.269531 53.285156 C 320.945312 53.285156 324.738281 57.078125 324.738281 61.753906 Z M 461.261719 96.046875 L 347.953125 96.046875 C 343.699219 96.046875 340.25 99.496094 340.25 103.75 L 340.25 217.058594 C 340.25 221.3125 343.699219 224.761719 347.953125 224.761719 L 461.261719 224.761719 C 465.515625 224.761719 468.964844 221.3125 468.964844 217.058594 L 468.964844 103.75 C 468.964844 99.496094 465.515625 96.046875 461.261719 96.046875 Z M 461.261719 96.046875 " fill-opacity="1" fill-rule="nonzero"/><g clip-path="url(#8d1f27a1eb)"><path fill="#f5f4f5" d="M 517.433594 368.785156 L 168.003906 368.785156 L 168.003906 360.71875 L 517.433594 360.71875 Z M 72.078125 273.3125 L 66.113281 273.3125 L 66.113281 368.785156 L 91.59375 368.785156 L 91.59375 292.828125 C 91.59375 282.050781 82.855469 273.3125 72.078125 273.3125 Z M 72.078125 273.3125 " fill-opacity="1" fill-rule="nonzero"/></g><path fill="#fa816e" d="M 147.601562 173.023438 L 147.601562 202.90625 C 147.601562 203.324219 147.589844 203.738281 147.5625 204.144531 C 147.105469 212.71875 141.871094 220.019531 134.472656 223.445312 L 134.472656 252.542969 C 128.78125 256.550781 123.085938 260.5625 117.394531 264.570312 C 111.730469 260.5625 106.066406 256.550781 100.402344 252.542969 L 100.402344 173.015625 C 116.128906 173.015625 131.867188 173.015625 147.601562 173.023438 Z M 223.011719 351.957031 C 223.136719 352.964844 223.890625 353.714844 224.769531 353.714844 C 235.757812 354.15625 246.808594 354.59375 257.792969 355.097656 C 259.050781 355.160156 259.992188 353.84375 259.679688 352.523438 C 259.363281 351.269531 258.863281 349.949219 257.984375 348.757812 C 255.21875 344.800781 250.449219 344.296875 243.417969 343.734375 C 236.070312 343.167969 229.605469 342.730469 224.078125 342.476562 C 222.949219 342.414062 222.007812 343.546875 222.132812 344.800781 C 222.449219 347.125 222.761719 349.574219 223.011719 351.957031 Z M 223.011719 351.957031 " fill-opacity="1" fill-rule="nonzero"/><g clip-path="url(#d6117a0660)"><path fill="#ff349a" d="M 228.378906 346.722656 L 228.378906 360.714844 L 161.722656 360.714844 L 161.722656 368.785156 C 135.410156 368.785156 109.027344 368.785156 82.71875 368.785156 C 89.453125 349.839844 90.292969 334.683594 89.875 324.511719 C 88.890625 300.304688 80.121094 283.746094 88.75 263.816406 C 91.417969 257.574219 94.925781 253.152344 97.171875 250.558594 C 110.152344 251.398438 123.132812 252.171875 136.113281 252.941406 C 144.671875 270.273438 153.164062 287.605469 161.722656 304.933594 L 172.878906 324.582031 C 191.335938 329.210938 209.855469 333.773438 228.378906 338.332031 C 228.378906 341.140625 228.378906 343.929688 228.378906 346.722656 Z M 228.378906 346.722656 " fill-opacity="1" fill-rule="nonzero"/></g><path fill="#982a86" d="M 136.042969 240.664062 C 136.746094 246.136719 137.449219 251.609375 138.21875 257.082031 C 123.203125 255.257812 108.257812 253.367188 93.242188 251.472656 C 94.789062 245.714844 96.332031 240.035156 97.945312 234.28125 Z M 234.050781 337.476562 C 230.074219 336.371094 226.097656 335.265625 222.121094 334.15625 L 222.121094 360.714844 L 234.050781 360.714844 C 234.050781 352.96875 234.050781 345.222656 234.050781 337.476562 Z M 234.050781 337.476562 " fill-opacity="1" fill-rule="nonzero"/><path fill="#fa816e" d="M 451.511719 311.402344 L 441.871094 311.402344 L 441.871094 285.195312 L 451.511719 285.195312 Z M 484.585938 321.855469 L 405.6875 321.855469 L 405.6875 360.71875 L 484.585938 360.71875 Z M 475.265625 285.195312 L 465.628906 285.195312 L 465.628906 311.402344 L 475.265625 311.402344 Z M 475.265625 285.195312 " fill-opacity="1" fill-rule="nonzero"/><path fill="#ff349a" d="M 263.492188 94.558594 L 280.804688 94.558594 L 280.804688 100.851562 L 263.492188 100.851562 Z M 226.351562 94.484375 L 209.035156 94.484375 L 209.035156 100.78125 L 226.351562 100.78125 Z M 308.03125 94.558594 L 290.71875 94.558594 L 290.71875 100.851562 L 308.03125 100.851562 Z M 220.261719 84.324219 L 277.007812 84.324219 C 279.167969 84.324219 280.917969 82.574219 280.917969 80.417969 C 280.917969 78.257812 279.167969 76.507812 277.007812 76.507812 L 220.261719 76.507812 C 218.101562 76.507812 216.351562 78.257812 216.351562 80.417969 C 216.351562 82.574219 218.101562 84.324219 220.261719 84.324219 Z M 313.792969 177.480469 L 293.734375 177.480469 C 293.390625 175.414062 291.601562 173.832031 289.433594 173.832031 L 270.996094 173.832031 C 268.832031 173.832031 267.039062 175.414062 266.695312 177.480469 L 246.316406 177.480469 C 244.363281 177.480469 242.785156 179.0625 242.785156 181.015625 L 242.785156 268.507812 C 242.785156 270.460938 244.363281 272.042969 246.316406 272.042969 L 313.792969 272.042969 C 315.742188 272.042969 317.324219 270.460938 317.324219 268.507812 L 317.324219 181.015625 C 317.328125 179.0625 315.746094 177.480469 313.792969 177.480469 Z M 253.578125 94.484375 L 236.265625 94.484375 L 236.265625 100.78125 L 253.578125 100.78125 Z M 198.441406 94.484375 L 181.128906 94.484375 L 181.128906 100.78125 L 198.441406 100.78125 Z M 231.988281 174.828125 L 231.988281 192.945312 C 231.988281 194.507812 230.722656 195.773438 229.160156 195.773438 L 185.726562 195.773438 C 184.167969 195.773438 182.902344 194.507812 182.902344 192.945312 L 182.902344 174.828125 C 182.902344 173.269531 184.167969 172.003906 185.726562 172.003906 L 229.160156 172.003906 C 230.722656 172.003906 231.988281 173.269531 231.988281 174.828125 Z M 226.316406 187.703125 C 226.316406 186.53125 225.363281 185.582031 224.195312 185.582031 L 191.578125 185.582031 C 190.40625 185.582031 189.457031 186.53125 189.457031 187.703125 C 189.457031 188.875 190.40625 189.824219 191.578125 189.824219 L 224.195312 189.824219 C 225.363281 189.824219 226.316406 188.875 226.316406 187.703125 Z M 226.316406 180.074219 C 226.316406 178.902344 225.363281 177.953125 224.195312 177.953125 L 191.578125 177.953125 C 190.40625 177.953125 189.457031 178.902344 189.457031 180.074219 C 189.457031 181.246094 190.40625 182.195312 191.578125 182.195312 L 224.195312 182.195312 C 225.363281 182.195312 226.316406 181.246094 226.316406 180.074219 Z M 226.316406 180.074219 " fill-opacity="1" fill-rule="nonzero"/><path fill="#f5f4f5" d="M 312.1875 269.089844 L 247.394531 269.089844 L 247.394531 180.433594 L 312.1875 180.433594 Z M 381.101562 19.058594 C 367.015625 19.058594 355.597656 30.476562 355.597656 44.566406 C 355.597656 58.652344 367.015625 70.070312 381.101562 70.070312 C 395.1875 70.070312 406.605469 58.652344 406.605469 44.566406 C 406.605469 30.476562 395.1875 19.058594 381.101562 19.058594 Z M 381.101562 19.058594 " fill-opacity="1" fill-rule="nonzero"/><path fill="#982a86" d="M 433.207031 343.203125 C 433.207031 347.511719 429.714844 351 425.40625 351 C 421.097656 351 417.605469 347.507812 417.605469 343.203125 C 417.605469 338.894531 421.097656 335.402344 425.40625 335.402344 C 429.714844 335.402344 433.207031 338.894531 433.207031 343.203125 Z M 474.339844 335.402344 L 439.277344 335.402344 L 439.277344 339.03125 L 474.339844 339.03125 Z M 474.339844 341.386719 L 439.277344 341.386719 L 439.277344 345.015625 L 474.339844 345.015625 Z M 474.339844 347.371094 L 439.277344 347.371094 L 439.277344 351 L 474.339844 351 Z M 265.324219 204.519531 C 265.324219 207.300781 263.070312 209.554688 260.289062 209.554688 C 257.507812 209.554688 255.253906 207.300781 255.253906 204.519531 C 255.253906 201.742188 257.507812 199.484375 260.289062 199.484375 C 263.070312 199.484375 265.324219 201.742188 265.324219 204.519531 Z M 305.175781 199.484375 L 271.6875 199.484375 L 271.6875 209.554688 L 305.175781 209.554688 Z M 260.289062 217.863281 C 257.507812 217.863281 255.253906 220.121094 255.253906 222.898438 C 255.253906 225.679688 257.507812 227.933594 260.289062 227.933594 C 263.070312 227.933594 265.324219 225.679688 265.324219 222.898438 C 265.324219 220.117188 263.070312 217.863281 260.289062 217.863281 Z M 305.175781 217.863281 L 271.6875 217.863281 L 271.6875 227.933594 L 305.175781 227.933594 Z M 260.128906 236.457031 C 257.347656 236.457031 255.09375 238.710938 255.09375 241.492188 C 255.09375 244.273438 257.347656 246.527344 260.128906 246.527344 C 262.910156 246.527344 265.164062 244.273438 265.164062 241.492188 C 265.164062 238.710938 262.910156 236.457031 260.128906 236.457031 Z M 305.015625 236.457031 L 271.527344 236.457031 L 271.527344 246.527344 L 305.015625 246.527344 Z M 399.347656 43.625 L 383.148438 43.625 L 383.148438 24.269531 L 379.054688 24.269531 L 379.054688 47.71875 L 399.347656 47.71875 Z M 399.347656 43.625 " fill-opacity="1" fill-rule="nonzero"/><path fill="#fa816e" d="M 205.171875 162.980469 L 202.449219 162.980469 L 202.449219 94.414062 L 205.171875 94.414062 Z M 232.398438 94.414062 L 229.675781 94.414062 L 229.675781 162.980469 L 232.398438 162.980469 Z M 259.625 94.464844 L 256.902344 94.464844 L 256.902344 163.03125 L 259.625 163.03125 Z M 286.851562 94.464844 L 284.128906 94.464844 L 284.128906 163.03125 L 286.851562 163.03125 Z M 313.636719 94.519531 L 310.914062 94.519531 L 310.914062 163.085938 L 313.636719 163.085938 Z M 363.476562 156.769531 C 370.527344 163.398438 381.617188 163.066406 388.25 156.015625 L 394.914062 162.289062 C 384.835938 173 367.917969 173.511719 357.207031 163.433594 C 346.492188 153.355469 345.976562 136.441406 356.054688 125.730469 L 362.71875 132 C 356.089844 139.050781 356.425781 150.136719 363.476562 156.769531 Z M 421.910156 132.003906 L 415.242188 125.726562 C 405.167969 136.441406 405.679688 153.355469 416.394531 163.4375 L 422.671875 156.769531 C 415.617188 150.136719 415.277344 139.054688 421.910156 132.003906 Z M 360.011719 179.410156 L 351.105469 179.410156 L 351.105469 200.054688 L 360.011719 200.054688 Z M 375.992188 179.410156 L 367.089844 179.410156 L 367.089844 206.515625 L 375.992188 206.515625 Z M 391.808594 179.410156 L 382.902344 179.410156 L 382.902344 200.054688 L 391.808594 200.054688 Z M 407.097656 179.410156 L 398.191406 179.410156 L 398.191406 200.054688 L 407.097656 200.054688 Z M 407.097656 179.410156 " fill-opacity="1" fill-rule="nonzero"/><path fill="#982a86" d="M 324.738281 61.753906 L 324.738281 67.035156 L 172.53125 67.035156 L 172.53125 61.753906 C 172.53125 57.078125 176.316406 53.285156 180.992188 53.285156 L 316.269531 53.285156 C 320.945312 53.285156 324.738281 57.078125 324.738281 61.753906 Z M 286.851562 117.417969 L 286.851562 115.175781 C 286.851562 113.734375 285.683594 112.5625 284.238281 112.5625 L 183.738281 112.5625 C 182.296875 112.5625 181.128906 113.734375 181.128906 115.175781 L 181.128906 117.417969 C 181.128906 118.859375 182.296875 120.027344 183.738281 120.027344 L 284.242188 120.027344 C 285.683594 120.027344 286.851562 118.859375 286.851562 117.417969 Z M 229.785156 135.535156 L 183.738281 135.535156 C 182.296875 135.535156 181.128906 134.367188 181.128906 132.925781 L 181.128906 130.683594 C 181.128906 129.242188 182.296875 128.070312 183.738281 128.070312 L 229.785156 128.070312 C 231.226562 128.070312 232.398438 129.242188 232.398438 130.683594 L 232.398438 132.925781 C 232.398438 134.367188 231.226562 135.535156 229.785156 135.535156 Z M 311.027344 151.042969 L 183.738281 151.042969 C 182.296875 151.042969 181.128906 149.875 181.128906 148.433594 L 181.128906 146.191406 C 181.128906 144.75 182.296875 143.578125 183.738281 143.578125 L 311.027344 143.578125 C 312.46875 143.578125 313.636719 144.75 313.636719 146.191406 L 313.636719 148.433594 C 313.636719 149.875 312.46875 151.042969 311.027344 151.042969 Z M 461.261719 96.046875 L 347.953125 96.046875 C 343.699219 96.046875 340.25 99.496094 340.25 103.75 L 340.25 108.046875 L 468.964844 108.046875 L 468.964844 103.75 C 468.964844 99.496094 465.515625 96.046875 461.261719 96.046875 Z M 461.261719 96.046875 " fill-opacity="1" fill-rule="nonzero"/><path fill="#f5f4f5" d="M 263.875 202.191406 L 259.726562 208.5 L 256.707031 206.253906 L 257.925781 204.613281 L 259.210938 205.570312 L 262.167969 201.070312 Z M 262.167969 219.183594 L 259.207031 223.683594 L 257.925781 222.730469 L 256.707031 224.367188 L 259.726562 226.613281 L 263.871094 220.304688 Z M 185.773438 60.160156 C 185.773438 61.253906 184.886719 62.144531 183.789062 62.144531 C 182.695312 62.144531 181.808594 61.257812 181.808594 60.160156 C 181.808594 59.066406 182.695312 58.179688 183.789062 58.179688 C 184.886719 58.179688 185.773438 59.066406 185.773438 60.160156 Z M 190.464844 58.179688 C 189.371094 58.179688 188.484375 59.066406 188.484375 60.160156 C 188.484375 61.257812 189.371094 62.144531 190.464844 62.144531 C 191.558594 62.144531 192.449219 61.257812 192.449219 60.160156 C 192.449219 59.066406 191.558594 58.179688 190.464844 58.179688 Z M 197.140625 58.179688 C 196.046875 58.179688 195.160156 59.066406 195.160156 60.160156 C 195.160156 61.257812 196.046875 62.144531 197.140625 62.144531 C 198.234375 62.144531 199.125 61.257812 199.125 60.160156 C 199.125 59.066406 198.234375 58.179688 197.140625 58.179688 Z M 350.824219 102.046875 C 350.824219 103.140625 349.933594 104.027344 348.839844 104.027344 C 347.746094 104.027344 346.859375 103.140625 346.859375 102.046875 C 346.859375 100.953125 347.746094 100.0625 348.839844 100.0625 C 349.933594 100.0625 350.824219 100.953125 350.824219 102.046875 Z M 355.515625 100.0625 C 354.421875 100.0625 353.53125 100.953125 353.53125 102.046875 C 353.53125 103.140625 354.421875 104.027344 355.515625 104.027344 C 356.609375 104.027344 357.496094 103.140625 357.496094 102.046875 C 357.496094 100.953125 356.609375 100.0625 355.515625 100.0625 Z M 362.191406 100.0625 C 361.09375 100.0625 360.207031 100.953125 360.207031 102.046875 C 360.207031 103.140625 361.09375 104.027344 362.191406 104.027344 C 363.285156 104.027344 364.171875 103.140625 364.171875 102.046875 C 364.171875 100.953125 363.285156 100.0625 362.191406 100.0625 Z M 362.191406 100.0625 " fill-opacity="1" fill-rule="nonzero"/><path fill="#7a226b" d="M 151.078125 176.558594 C 134.183594 187.519531 117.292969 198.476562 100.402344 209.4375 C 99.898438 208.820312 88.214844 194.097656 94.273438 180.472656 C 95.1875 178.40625 96.9375 175.421875 100.402344 172.566406 C 115.410156 169.085938 130.417969 165.605469 145.429688 162.125 C 147.3125 166.9375 149.195312 171.746094 151.078125 176.558594 Z M 393.757812 124.578125 C 404.472656 134.660156 404.996094 151.574219 394.914062 162.289062 L 388.25 156.015625 C 394.882812 148.96875 394.539062 137.878906 387.488281 131.246094 C 380.4375 124.613281 369.355469 124.953125 362.722656 132 L 356.054688 125.730469 C 366.132812 115.015625 383.046875 114.5 393.757812 124.578125 Z M 452.953125 124.578125 C 442.238281 114.5 425.324219 115.015625 415.246094 125.730469 L 421.914062 132.003906 C 428.546875 124.953125 439.628906 124.613281 446.679688 131.246094 C 453.730469 137.878906 454.074219 148.96875 447.441406 156.019531 C 447.441406 156.019531 447.4375 156.019531 447.4375 156.019531 C 440.8125 163.070312 429.722656 163.40625 422.671875 156.769531 L 416.394531 163.4375 C 427.109375 173.511719 444.03125 173 454.105469 162.289062 L 454.109375 162.289062 C 464.1875 151.574219 463.667969 134.660156 452.953125 124.578125 Z M 360.011719 196.195312 L 351.105469 196.195312 L 351.105469 216.839844 L 360.011719 216.839844 Z M 375.992188 204.476562 L 367.089844 204.476562 L 367.089844 216.839844 L 375.992188 216.839844 Z M 391.808594 187.039062 L 382.902344 187.039062 L 382.902344 216.839844 L 391.808594 216.839844 Z M 407.097656 197.820312 L 398.191406 197.820312 L 398.191406 216.839844 L 407.097656 216.839844 Z M 457.140625 183.734375 L 457.140625 212.515625 C 457.140625 214.902344 455.203125 216.839844 452.8125 216.839844 L 424.855469 216.839844 C 422.46875 216.839844 420.53125 214.902344 420.53125 212.515625 L 420.53125 183.734375 C 420.53125 181.347656 422.46875 179.410156 424.855469 179.410156 L 452.8125 179.410156 C 455.203125 179.410156 457.140625 181.347656 457.140625 183.734375 Z M 451.761719 209.65625 C 451.761719 208.65625 450.949219 207.847656 449.949219 207.847656 L 427.722656 207.847656 C 426.722656 207.847656 425.910156 208.65625 425.910156 209.65625 C 425.910156 210.65625 426.722656 211.46875 427.722656 211.46875 L 449.949219 211.46875 C 450.949219 211.46875 451.761719 210.65625 451.761719 209.65625 Z M 451.761719 201.96875 C 451.761719 200.96875 450.949219 200.15625 449.949219 200.15625 L 427.722656 200.15625 C 426.722656 200.15625 425.910156 200.96875 425.910156 201.96875 C 425.910156 202.96875 426.722656 203.78125 427.722656 203.78125 L 449.949219 203.78125 C 450.949219 203.777344 451.761719 202.96875 451.761719 201.96875 Z M 451.761719 194.28125 C 451.761719 193.28125 450.949219 192.46875 449.949219 192.46875 L 427.722656 192.46875 C 426.722656 192.46875 425.910156 193.28125 425.910156 194.28125 C 425.910156 195.28125 426.722656 196.089844 427.722656 196.089844 L 449.949219 196.089844 C 450.949219 196.089844 451.761719 195.28125 451.761719 194.28125 Z M 451.761719 186.59375 C 451.761719 185.59375 450.949219 184.78125 449.949219 184.78125 L 427.722656 184.78125 C 426.722656 184.78125 425.910156 185.59375 425.910156 186.59375 C 425.910156 187.59375 426.722656 188.402344 427.722656 188.402344 L 449.949219 188.402344 C 450.949219 188.402344 451.761719 187.59375 451.761719 186.59375 Z M 451.761719 186.59375 " fill-opacity="1" fill-rule="nonzero"/><path fill="#982a86" d="M 383.324219 145.890625 C 383.5 145.460938 383.476562 145.460938 383.953125 145.410156 C 384.664062 145.335938 385.34375 145.257812 386.027344 145.183594 C 386.027344 144.070312 386.027344 142.960938 386.027344 141.847656 C 385.21875 141.773438 384.433594 141.671875 383.625 141.597656 C 383.5 141.597656 383.476562 141.523438 383.425781 141.421875 C 383.273438 141.015625 383.09375 140.585938 382.945312 140.183594 C 382.894531 140.003906 382.71875 139.855469 382.742188 139.703125 C 382.765625 139.550781 382.945312 139.425781 383.070312 139.273438 C 383.472656 138.769531 383.902344 138.238281 384.308594 137.730469 C 383.523438 136.925781 382.742188 136.140625 381.957031 135.359375 C 381.90625 135.410156 381.859375 135.433594 381.808594 135.484375 C 381.226562 135.9375 380.644531 136.417969 380.066406 136.875 C 380.015625 136.898438 379.886719 136.925781 379.835938 136.898438 C 379.28125 136.695312 378.75 136.445312 378.222656 136.242188 C 378.121094 136.214844 378.070312 136.191406 378.070312 136.066406 C 378.042969 135.761719 377.996094 135.433594 377.96875 135.128906 C 377.917969 134.652344 377.867188 134.171875 377.816406 133.667969 C 376.707031 133.667969 375.59375 133.667969 374.484375 133.667969 C 374.40625 134.472656 374.304688 135.28125 374.230469 136.089844 C 374.230469 136.191406 374.207031 136.242188 374.105469 136.269531 C 373.601562 136.445312 373.121094 136.648438 372.613281 136.875 C 372.4375 136.949219 372.335938 137 372.183594 136.824219 C 372.085938 136.722656 371.957031 136.648438 371.832031 136.546875 C 371.351562 136.167969 370.871094 135.789062 370.417969 135.410156 C 369.609375 136.21875 368.824219 137 368.042969 137.785156 C 368.523438 138.390625 369.027344 139.019531 369.53125 139.628906 C 369.609375 139.726562 369.609375 139.804688 369.558594 139.90625 C 369.355469 140.285156 369.207031 140.6875 369.027344 141.066406 C 368.953125 141.269531 368.925781 141.523438 368.800781 141.625 C 368.648438 141.722656 368.398438 141.675781 368.195312 141.699219 C 367.5625 141.773438 366.933594 141.824219 366.300781 141.902344 C 366.300781 143.011719 366.300781 144.125 366.300781 145.234375 C 366.375 145.234375 366.425781 145.261719 366.503906 145.261719 C 367.234375 145.359375 367.992188 145.4375 368.726562 145.511719 C 368.777344 145.511719 368.851562 145.589844 368.878906 145.640625 C 369.128906 146.167969 369.332031 146.699219 369.558594 147.253906 C 369.585938 147.332031 369.585938 147.433594 369.535156 147.480469 C 369.230469 147.886719 368.925781 148.265625 368.625 148.644531 C 368.421875 148.898438 368.222656 149.148438 368.042969 149.378906 C 368.851562 150.183594 369.636719 150.96875 370.417969 151.75 C 371.023438 151.269531 371.65625 150.765625 372.261719 150.261719 C 372.363281 150.160156 372.4375 150.1875 372.539062 150.234375 C 373.042969 150.4375 373.550781 150.664062 374.082031 150.867188 C 374.207031 150.917969 374.257812 150.941406 374.257812 151.070312 C 374.332031 151.878906 374.410156 152.660156 374.511719 153.496094 C 375.621094 153.496094 376.734375 153.496094 377.792969 153.394531 C 377.792969 153.34375 377.820312 153.265625 377.820312 153.214844 C 377.894531 152.484375 377.96875 151.726562 378.046875 150.96875 C 378.070312 150.867188 378.097656 150.816406 378.199219 150.792969 C 378.726562 150.589844 379.257812 150.363281 379.8125 150.136719 C 379.863281 150.109375 379.964844 150.136719 380.015625 150.160156 C 380.167969 150.261719 380.320312 150.386719 380.472656 150.515625 C 380.976562 150.917969 381.457031 151.320312 381.910156 151.675781 C 382.71875 150.867188 383.503906 150.085938 384.285156 149.300781 C 383.804688 148.695312 383.300781 148.089844 382.796875 147.457031 C 382.71875 147.355469 382.71875 147.28125 382.769531 147.179688 C 382.945312 146.75 383.148438 146.320312 383.324219 145.890625 Z M 376.023438 148.519531 C 373.449219 148.441406 371.199219 146.296875 371.25 143.492188 C 371.300781 140.863281 373.5 138.617188 376.277344 138.667969 C 378.929688 138.71875 381.125 140.914062 381.101562 143.617188 C 381.101562 146.320312 378.851562 148.59375 376.023438 148.519531 Z M 442.253906 146.320312 C 442.429688 145.890625 442.40625 145.890625 442.886719 145.839844 C 443.59375 145.761719 444.277344 145.6875 444.957031 145.613281 C 444.957031 144.5 444.957031 143.390625 444.957031 142.277344 C 444.148438 142.203125 443.367188 142.101562 442.558594 142.023438 C 442.429688 142.023438 442.40625 141.949219 442.355469 141.847656 C 442.203125 141.445312 442.027344 141.015625 441.875 140.609375 C 441.824219 140.433594 441.648438 140.28125 441.671875 140.128906 C 441.699219 139.980469 441.875 139.851562 442.003906 139.699219 C 442.40625 139.195312 442.835938 138.664062 443.238281 138.160156 C 442.457031 137.351562 441.671875 136.570312 440.890625 135.785156 C 440.839844 135.835938 440.789062 135.859375 440.738281 135.910156 C 440.15625 136.367188 439.578125 136.847656 438.996094 137.300781 C 438.945312 137.328125 438.820312 137.351562 438.769531 137.328125 C 438.214844 137.125 437.683594 136.871094 437.152344 136.671875 C 437.050781 136.644531 437 136.621094 437 136.492188 C 436.976562 136.191406 436.925781 135.863281 436.902344 135.558594 C 436.851562 135.078125 436.800781 134.597656 436.75 134.09375 C 435.636719 134.09375 434.527344 134.09375 433.414062 134.09375 C 433.339844 134.902344 433.238281 135.710938 433.164062 136.519531 C 433.164062 136.621094 433.136719 136.671875 433.035156 136.695312 C 432.53125 136.875 432.050781 137.074219 431.546875 137.300781 C 431.371094 137.378906 431.269531 137.429688 431.117188 137.25 C 431.015625 137.152344 430.890625 137.074219 430.765625 136.972656 C 430.285156 136.59375 429.804688 136.214844 429.347656 135.835938 C 428.542969 136.644531 427.757812 137.429688 426.976562 138.210938 C 427.453125 138.816406 427.960938 139.449219 428.464844 140.054688 C 428.539062 140.15625 428.539062 140.234375 428.492188 140.332031 C 428.289062 140.710938 428.136719 141.117188 427.960938 141.496094 C 427.882812 141.699219 427.859375 141.949219 427.734375 142.050781 C 427.582031 142.152344 427.328125 142.101562 427.125 142.125 C 426.496094 142.203125 425.863281 142.253906 425.234375 142.328125 C 425.234375 143.441406 425.234375 144.550781 425.234375 145.664062 C 425.308594 145.664062 425.359375 145.6875 425.433594 145.6875 C 426.167969 145.789062 426.925781 145.867188 427.65625 145.941406 C 427.707031 145.941406 427.785156 146.015625 427.808594 146.066406 C 428.0625 146.597656 428.265625 147.128906 428.492188 147.683594 C 428.515625 147.757812 428.515625 147.859375 428.464844 147.910156 C 428.164062 148.316406 427.859375 148.691406 427.558594 149.074219 C 427.355469 149.324219 427.152344 149.578125 426.976562 149.804688 C 427.785156 150.613281 428.566406 151.398438 429.351562 152.179688 C 429.957031 151.699219 430.585938 151.195312 431.195312 150.691406 C 431.292969 150.589844 431.371094 150.613281 431.472656 150.664062 C 431.976562 150.867188 432.480469 151.09375 433.011719 151.296875 C 433.140625 151.347656 433.191406 151.371094 433.191406 151.496094 C 433.265625 152.304688 433.339844 153.089844 433.441406 153.921875 C 434.554688 153.921875 435.664062 153.921875 436.726562 153.820312 C 436.726562 153.769531 436.75 153.695312 436.75 153.644531 C 436.824219 152.914062 436.902344 152.15625 436.976562 151.398438 C 437.003906 151.296875 437.027344 151.246094 437.128906 151.21875 C 437.660156 151.015625 438.191406 150.789062 438.746094 150.5625 C 438.796875 150.539062 438.898438 150.5625 438.949219 150.589844 C 439.097656 150.691406 439.25 150.816406 439.402344 150.941406 C 439.90625 151.347656 440.386719 151.75 440.84375 152.105469 C 441.652344 151.296875 442.433594 150.511719 443.21875 149.730469 C 442.738281 149.125 442.230469 148.515625 441.726562 147.886719 C 441.652344 147.785156 441.652344 147.707031 441.703125 147.609375 C 441.875 147.179688 442.078125 146.75 442.253906 146.320312 Z M 434.957031 148.945312 C 432.378906 148.871094 430.132812 146.722656 430.179688 143.917969 C 430.230469 141.292969 432.429688 139.042969 435.207031 139.09375 C 437.859375 139.144531 440.058594 141.34375 440.03125 144.046875 C 440.03125 146.75 437.785156 149.019531 434.957031 148.945312 Z M 434.957031 148.945312 " fill-opacity="1" fill-rule="nonzero"/><path fill="#fa816e" d="M 184.394531 248.511719 L 186.980469 219.390625 L 216.097656 221.972656 L 213.515625 251.09375 Z M 184.394531 248.511719 " fill-opacity="1" fill-rule="nonzero"/><path fill="#fa816e" d="M 110.84375 178.460938 C 105.078125 178.460938 100.402344 183.136719 100.402344 188.90625 L 100.402344 214.636719 L 121.289062 214.636719 L 121.289062 188.90625 C 121.285156 183.136719 116.613281 178.460938 110.84375 178.460938 Z M 110.84375 178.460938 " fill-opacity="1" fill-rule="nonzero"/><path fill="#fa816e" d="M 299.382812 105.460938 L 301.96875 76.34375 L 331.089844 78.925781 L 328.503906 108.046875 Z M 299.382812 105.460938 " fill-opacity="1" fill-rule="nonzero"/><path fill="#7a226b" d="M 321.476562 80.726562 L 311.308594 80.726562 L 311.308594 74.957031 L 321.476562 74.957031 Z M 206.488281 218 L 196.320312 218 L 196.320312 223.769531 L 206.488281 223.769531 Z M 206.488281 218 " fill-opacity="1" fill-rule="nonzero"/></svg>